<svg width="24" height="24" viewBox="0 0 24 24" fill="none" xmlns="http://www.w3.org/2000/svg">
<path d="M12.0002 1.6665C6.12016 1.6665 1.3335 5.85317 1.3335 10.9998C1.3335 16.1465 6.12016 20.3332 12.0002 20.3332C13.1003 20.3327 14.1951 20.1801 15.2535 19.8798L18.9402 22.2265C19.0888 22.3217 19.269 22.3542 19.4415 22.3167C19.614 22.2792 19.7645 22.1748 19.8602 22.0265C19.9413 21.9229 19.99 21.7977 20.0002 21.6665V17.1798C20.8343 16.3796 21.5 15.4206 21.9579 14.3593C22.4159 13.2979 22.6569 12.1557 22.6668 10.9998C22.6668 5.85317 17.8802 1.6665 12.0002 1.6665ZM19.8935 11.9998H14.3402C14.3027 12.0002 14.2657 12.008 14.2314 12.0229C14.197 12.0378 14.166 12.0594 14.1402 12.0865L10.6068 15.8465C10.5825 15.8737 10.5527 15.8955 10.5194 15.9104C10.4861 15.9254 10.45 15.9331 10.4135 15.9332H8.7935C8.74792 15.9328 8.70314 15.9211 8.66326 15.899C8.62337 15.877 8.58963 15.8453 8.56512 15.8068C8.5406 15.7684 8.52609 15.7245 8.52289 15.679C8.5197 15.6335 8.52793 15.588 8.54683 15.5465L10.1935 11.9998H4.9735C4.92411 11.9987 4.87589 11.9846 4.83374 11.9588C4.79159 11.9331 4.75701 11.8966 4.7335 11.8532L2.9335 8.51984H4.16016C4.20948 8.52059 4.25809 8.53165 4.30286 8.55232C4.34764 8.57298 4.3876 8.6028 4.42016 8.63984L5.46016 9.7665C5.48632 9.79896 5.52009 9.82446 5.55847 9.84074C5.59684 9.85702 5.63864 9.86358 5.68016 9.85984L9.80016 9.6065L8.46683 7.23984H10.3935C10.469 7.23859 10.5424 7.26463 10.6002 7.31317L13.0868 9.33317L17.5468 9.09984C17.7659 9.08478 17.9857 9.11422 18.1931 9.18641C18.4005 9.25859 18.5911 9.37201 18.7535 9.51984L20.4002 11.0065C20.473 11.0986 20.5179 11.2097 20.5295 11.3265C20.5411 11.4434 20.5189 11.5611 20.4655 11.6657C20.4122 11.7703 20.3299 11.8574 20.2285 11.9166C20.1271 11.9759 20.0108 12.0047 19.8935 11.9998Z" fill="black"/>
</svg>
