<svg width="1430" height="1024" viewBox="0 0 1430 1024" fill="none" xmlns="http://www.w3.org/2000/svg">
<g clip-path="url(#clip0_1_75)">
<path d="M1440 0H0V1024H1440V0Z" fill="white"/>
<g filter="url(#filter0_d_1_75)">
<path d="M865.7 1024C873.2 910.4 880.6 796.8 942.7 736.9C1004.8 676.9 1121.5 670.6 1213.5 631.7C1305.5 592.8 1372.7 521.3 1440 449.7V1024H865.7Z" fill="#FFE5C6"/>
</g>
<g filter="url(#filter1_d_1_75)">
<path d="M1057.2 1024C1062.1 948.3 1067.1 872.5 1108.4 832.6C1149.8 792.6 1227.7 788.4 1289 762.5C1350.3 736.5 1395.2 688.8 1440 641.2V1024H1057.2Z" fill="#FFB256"/>
</g>
<g filter="url(#filter2_d_1_75)">
<path d="M1248.6 1024C1251.1 986.1 1253.5 948.3 1274.2 928.3C1294.9 908.3 1333.8 906.2 1364.5 893.2C1395.2 880.3 1417.6 856.4 1440 832.6V1024H1248.6Z" fill="#FF9900"/>
</g>
<g filter="url(#filter3_d_1_75)">
<path d="M574.3 0C566.2 112.4 558.1 224.9 497.3 287.1C436.6 349.4 323.2 361.5 231.5 401C139.8 440.5 69.9 507.4 0 574.3V0H574.3Z" fill="#FFE5C6"/>
</g>
<g filter="url(#filter4_d_1_75)">
<path d="M382.8 0C377.4 75 372.1 149.9 331.6 191.4C291.1 232.9 215.4 241 154.3 267.3C93.2 293.6 46.6 338.2 0 382.8V0H382.8Z" fill="#FFB256"/>
</g>
<g filter="url(#filter5_d_1_75)">
<path d="M191.4 0C188.7 37.5 186 75 165.8 95.7C145.5 116.5 107.7 120.5 77.2 133.7C46.6 146.8 23.3 169.1 0 191.4V0H191.4Z" fill="#FF9900"/>
</g>
</g>
<defs>
<filter id="filter0_d_1_75" x="755.7" y="346.7" width="774.3" height="774.3" filterUnits="userSpaceOnUse" color-interpolation-filters="sRGB">
<feFlood flood-opacity="0" result="BackgroundImageFix"/>
<feColorMatrix in="SourceAlpha" type="matrix" values="0 0 0 0 0 0 0 0 0 0 0 0 0 0 0 0 0 0 127 0" result="hardAlpha"/>
<feOffset dx="-10" dy="-3"/>
<feGaussianBlur stdDeviation="50"/>
<feComposite in2="hardAlpha" operator="out"/>
<feColorMatrix type="matrix" values="0 0 0 0 0.4375 0 0 0 0 0.4375 0 0 0 0 0.4375 0 0 0 0.5 0"/>
<feBlend mode="normal" in2="BackgroundImageFix" result="effect1_dropShadow_1_75"/>
<feBlend mode="normal" in="SourceGraphic" in2="effect1_dropShadow_1_75" result="shape"/>
</filter>
<filter id="filter1_d_1_75" x="1017.2" y="608.2" width="442.8" height="442.8" filterUnits="userSpaceOnUse" color-interpolation-filters="sRGB">
<feFlood flood-opacity="0" result="BackgroundImageFix"/>
<feColorMatrix in="SourceAlpha" type="matrix" values="0 0 0 0 0 0 0 0 0 0 0 0 0 0 0 0 0 0 127 0" result="hardAlpha"/>
<feOffset dx="-10" dy="-3"/>
<feGaussianBlur stdDeviation="15"/>
<feComposite in2="hardAlpha" operator="out"/>
<feColorMatrix type="matrix" values="0 0 0 0 0.254167 0 0 0 0 0.254167 0 0 0 0 0.254167 0 0 0 0.5 0"/>
<feBlend mode="normal" in2="BackgroundImageFix" result="effect1_dropShadow_1_75"/>
<feBlend mode="normal" in="SourceGraphic" in2="effect1_dropShadow_1_75" result="shape"/>
</filter>
<filter id="filter2_d_1_75" x="1208.6" y="799.6" width="251.4" height="251.4" filterUnits="userSpaceOnUse" color-interpolation-filters="sRGB">
<feFlood flood-opacity="0" result="BackgroundImageFix"/>
<feColorMatrix in="SourceAlpha" type="matrix" values="0 0 0 0 0 0 0 0 0 0 0 0 0 0 0 0 0 0 127 0" result="hardAlpha"/>
<feOffset dx="-10" dy="-3"/>
<feGaussianBlur stdDeviation="15"/>
<feComposite in2="hardAlpha" operator="out"/>
<feColorMatrix type="matrix" values="0 0 0 0 0.254167 0 0 0 0 0.254167 0 0 0 0 0.254167 0 0 0 0.5 0"/>
<feBlend mode="normal" in2="BackgroundImageFix" result="effect1_dropShadow_1_75"/>
<feBlend mode="normal" in="SourceGraphic" in2="effect1_dropShadow_1_75" result="shape"/>
</filter>
<filter id="filter3_d_1_75" x="-90" y="-97" width="774.3" height="774.3" filterUnits="userSpaceOnUse" color-interpolation-filters="sRGB">
<feFlood flood-opacity="0" result="BackgroundImageFix"/>
<feColorMatrix in="SourceAlpha" type="matrix" values="0 0 0 0 0 0 0 0 0 0 0 0 0 0 0 0 0 0 127 0" result="hardAlpha"/>
<feOffset dx="10" dy="3"/>
<feGaussianBlur stdDeviation="50"/>
<feComposite in2="hardAlpha" operator="out"/>
<feColorMatrix type="matrix" values="0 0 0 0 0.4375 0 0 0 0 0.4375 0 0 0 0 0.4375 0 0 0 0.5 0"/>
<feBlend mode="normal" in2="BackgroundImageFix" result="effect1_dropShadow_1_75"/>
<feBlend mode="normal" in="SourceGraphic" in2="effect1_dropShadow_1_75" result="shape"/>
</filter>
<filter id="filter4_d_1_75" x="-20" y="-27" width="442.8" height="442.8" filterUnits="userSpaceOnUse" color-interpolation-filters="sRGB">
<feFlood flood-opacity="0" result="BackgroundImageFix"/>
<feColorMatrix in="SourceAlpha" type="matrix" values="0 0 0 0 0 0 0 0 0 0 0 0 0 0 0 0 0 0 127 0" result="hardAlpha"/>
<feOffset dx="10" dy="3"/>
<feGaussianBlur stdDeviation="15"/>
<feComposite in2="hardAlpha" operator="out"/>
<feColorMatrix type="matrix" values="0 0 0 0 0.254167 0 0 0 0 0.254167 0 0 0 0 0.254167 0 0 0 0.5 0"/>
<feBlend mode="normal" in2="BackgroundImageFix" result="effect1_dropShadow_1_75"/>
<feBlend mode="normal" in="SourceGraphic" in2="effect1_dropShadow_1_75" result="shape"/>
</filter>
<filter id="filter5_d_1_75" x="-20" y="-27" width="251.4" height="251.4" filterUnits="userSpaceOnUse" color-interpolation-filters="sRGB">
<feFlood flood-opacity="0" result="BackgroundImageFix"/>
<feColorMatrix in="SourceAlpha" type="matrix" values="0 0 0 0 0 0 0 0 0 0 0 0 0 0 0 0 0 0 127 0" result="hardAlpha"/>
<feOffset dx="10" dy="3"/>
<feGaussianBlur stdDeviation="15"/>
<feComposite in2="hardAlpha" operator="out"/>
<feColorMatrix type="matrix" values="0 0 0 0 0.254167 0 0 0 0 0.254167 0 0 0 0 0.254167 0 0 0 0.5 0"/>
<feBlend mode="normal" in2="BackgroundImageFix" result="effect1_dropShadow_1_75"/>
<feBlend mode="normal" in="SourceGraphic" in2="effect1_dropShadow_1_75" result="shape"/>
</filter>
<clipPath id="clip0_1_75">
<rect width="1440" height="1024" fill="white"/>
</clipPath>
</defs>
</svg>
