<svg id="visual" viewBox="0 0 1440 1024" width="1440" height="1024" xmlns="http://www.w3.org/2000/svg" xmlns:xlink="http://www.w3.org/1999/xlink" version="1.1"><rect x="0" y="0" width="1440" height="1024" fill="#ffffff"></rect><defs><linearGradient id="grad1_0" x1="28.9%" y1="100%" x2="100%" y2="0%"><stop offset="21.875%" stop-color="#ff9900" stop-opacity="1"></stop><stop offset="78.125%" stop-color="#ff9900" stop-opacity="1"></stop></linearGradient></defs><defs><linearGradient id="grad1_1" x1="28.9%" y1="100%" x2="100%" y2="0%"><stop offset="21.875%" stop-color="#ff9900" stop-opacity="1"></stop><stop offset="78.125%" stop-color="#ffcb8f" stop-opacity="1"></stop></linearGradient></defs><defs><linearGradient id="grad1_2" x1="28.9%" y1="100%" x2="100%" y2="0%"><stop offset="21.875%" stop-color="#ffffff" stop-opacity="1"></stop><stop offset="78.125%" stop-color="#ffcb8f" stop-opacity="1"></stop></linearGradient></defs><defs><linearGradient id="grad2_0" x1="0%" y1="100%" x2="71.1%" y2="0%"><stop offset="21.875%" stop-color="#ff9900" stop-opacity="1"></stop><stop offset="78.125%" stop-color="#ff9900" stop-opacity="1"></stop></linearGradient></defs><defs><linearGradient id="grad2_1" x1="0%" y1="100%" x2="71.1%" y2="0%"><stop offset="21.875%" stop-color="#ffcb8f" stop-opacity="1"></stop><stop offset="78.125%" stop-color="#ff9900" stop-opacity="1"></stop></linearGradient></defs><defs><linearGradient id="grad2_2" x1="0%" y1="100%" x2="71.1%" y2="0%"><stop offset="21.875%" stop-color="#ffcb8f" stop-opacity="1"></stop><stop offset="78.125%" stop-color="#ffffff" stop-opacity="1"></stop></linearGradient></defs><g transform="translate(1440, 1024)"><path d="M-574.3 0C-566.8 -113.6 -559.4 -227.2 -497.3 -287.1C-435.2 -347.1 -318.5 -353.4 -226.5 -392.3C-134.5 -431.2 -67.3 -502.7 0 -574.3L0 0Z" fill="#ffe5c6"></path><path d="M-382.8 0C-377.9 -75.7 -372.9 -151.5 -331.6 -191.4C-290.2 -231.4 -212.3 -235.6 -151 -261.5C-89.7 -287.5 -44.8 -335.2 0 -382.8L0 0Z" fill="#ffb256"></path><path d="M-191.4 0C-188.9 -37.9 -186.5 -75.7 -165.8 -95.7C-145.1 -115.7 -106.2 -117.8 -75.5 -130.8C-44.8 -143.7 -22.4 -167.6 0 -191.4L0 0Z" fill="#ff9900"></path></g><g transform="translate(0, 0)"><path d="M574.3 0C566.2 112.4 558.1 224.9 497.3 287.1C436.6 349.4 323.2 361.5 231.5 401C139.8 440.5 69.9 507.4 0 574.3L0 0Z" fill="#ffe5c6"></path><path d="M382.8 0C377.4 75 372.1 149.9 331.6 191.4C291.1 232.9 215.4 241 154.3 267.3C93.2 293.6 46.6 338.2 0 382.8L0 0Z" fill="#ffb256"></path><path d="M191.4 0C188.7 37.5 186 75 165.8 95.7C145.5 116.5 107.7 120.5 77.2 133.7C46.6 146.8 23.3 169.1 0 191.4L0 0Z" fill="#ff9900"></path></g></svg>