<svg width="16" height="20" viewBox="0 0 16 20" fill="none" xmlns="http://www.w3.org/2000/svg">
<path d="M16 16.0001C16 18.2101 12.418 20.0001 8 20.0001C3.582 20.0001 0 18.2101 0 16.0001V11.9741C0.502 12.5911 1.215 13.1031 2.008 13.4991C3.58 14.2851 5.7 14.7501 8 14.7501C10.3 14.7501 12.42 14.2851 13.992 13.5001C14.785 13.1031 15.498 12.5901 16 11.9741V16.0001Z" fill="black"/>
<path d="M8 8.75012C10.3 8.75012 12.42 8.28512 13.992 7.50012C14.785 7.10312 15.498 6.59012 16 5.97412V10.0001C16 10.5001 14.214 11.5911 13.321 12.1581C11.998 12.8191 10.118 13.2501 8 13.2501C5.882 13.2501 4.002 12.8201 2.679 12.1581C1.5 11.5681 0 10.5001 0 10.0001V5.97412C0.502 6.59112 1.215 7.10312 2.008 7.49912C3.58 8.28512 5.7 8.75012 8 8.75012Z" fill="black"/>
<path d="M13.3208 6.158C11.9978 6.819 10.1178 7.25 7.9998 7.25C5.8818 7.25 4.0018 6.82 2.6788 6.158C2.1638 5.956 1.0058 5.315 0.200796 4.279C0.133087 4.19191 0.0838811 4.0919 0.056196 3.98512C0.028511 3.87833 0.0229303 3.76702 0.0397962 3.658C0.0627962 3.51 0.0947964 3.357 0.135796 3.262C0.827796 1.406 4.0858 0 7.9998 0C11.9138 0 15.1718 1.406 15.8638 3.262C15.9048 3.357 15.9368 3.51 15.9598 3.658C15.9765 3.76709 15.9708 3.87844 15.9429 3.98523C15.9151 4.09202 15.8657 4.19199 15.7978 4.279C14.9938 5.315 13.8358 5.956 13.3208 6.158Z" fill="black"/>
</svg>
