<svg width="574" height="574" viewBox="0 0 574 574" fill="none" xmlns="http://www.w3.org/2000/svg">
<path d="M0 574.3C7.5 460.7 14.9 347.1 77 287.2C139.1 227.2 255.8 220.9 347.8 182C439.8 143.1 507 71.6 574.3 0V574.3H0Z" fill="#FFE5C6"/>
<path d="M191 573.8C195.9 498.1 200.9 422.3 242.2 382.4C283.6 342.4 361.5 338.2 422.8 312.3C484.1 286.3 529 238.6 573.8 191V573.8H191Z" fill="#FFB256"/>
<path d="M383 574.4C385.5 536.5 387.9 498.7 408.6 478.7C429.3 458.7 468.2 456.6 498.9 443.6C529.6 430.7 552 406.8 574.4 383V574.4H383Z" fill="#FF9900"/>
</svg>
