<svg width="28" height="24" viewBox="0 0 28 24" fill="none" xmlns="http://www.w3.org/2000/svg">
<g clip-path="url(#clip0_4_121)">
<path d="M11.9 13.5H9.1C8.91435 13.5 8.7363 13.421 8.60503 13.2803C8.47375 13.1397 8.4 12.9489 8.4 12.75V9.75C8.4 9.55109 8.47375 9.36032 8.60503 9.21967C8.7363 9.07902 8.91435 9 9.1 9H11.9C12.0857 9 12.2637 9.07902 12.395 9.21967C12.5263 9.36032 12.6 9.55109 12.6 9.75V11.49C13.0861 10.8862 13.7812 10.5 14.56 10.5H20.5511L20.8421 10.147C20.9368 10.0205 20.9921 9.86518 21 9.70312C20.9901 9.51562 20.9161 9.33859 20.7922 9.20578L18.2 6.75V2.25C18.2 2.05109 18.1263 1.86032 17.995 1.71967C17.8637 1.57902 17.6857 1.5 17.5 1.5H16.1C15.9143 1.5 15.7363 1.57902 15.605 1.71967C15.4737 1.86032 15.4 2.05109 15.4 2.25V4.09219L11.5281 0.418125C11.2875 0.1875 10.8259 0 10.5022 0C10.1784 0 9.71775 0.1875 9.47537 0.418125L0.209125 9.20719C0.0844518 9.33901 0.00992387 9.51575 0 9.70312C0.00755723 9.86363 0.0618734 10.0176 0.155312 10.1433L0.977375 11.1422C1.10146 11.2763 1.26771 11.3562 1.44375 11.3662C1.59239 11.3583 1.7351 11.3013 1.85237 11.2031L2.8 10.3069V18C2.8 18.3978 2.9475 18.7794 3.21005 19.0607C3.4726 19.342 3.8287 19.5 4.2 19.5H11.9V13.5ZM27.5332 21H25.9V13.5C25.9 12.6717 25.3361 12 24.64 12H14.56C13.8639 12 13.3 12.6717 13.3 13.5V21H11.6668C11.543 21 11.4243 21.0527 11.3367 21.1465C11.2492 21.2403 11.2 21.3675 11.2 21.5002V21.9998C11.2017 22.5292 11.3985 23.0364 11.7476 23.411C12.0967 23.7856 12.5697 23.9973 13.0638 24H26.1363C26.6303 23.9973 27.1033 23.7856 27.4524 23.411C27.8015 23.0364 27.9983 22.5292 28 21.9998V21.5002C28 21.3675 27.9508 21.2403 27.8633 21.1465C27.7757 21.0527 27.657 21 27.5332 21ZM23.8 21H15.4V14.25H23.8V21Z" fill="black"/>
</g>
<defs>
<clipPath id="clip0_4_121">
<rect width="28" height="24" fill="white"/>
</clipPath>
</defs>
</svg>
